<?xml version="1.0" encoding="UTF-8"?>
<!-- Generated by Pixelmator Pro 3.6.8 -->
<svg width="2160" height="2160" viewBox="0 0 2160 2160" xmlns="http://www.w3.org/2000/svg">
    <path id="Developers-copy" fill="#07c1d8" fill-rule="evenodd" stroke="none" d="M 1714.334839 998.166748 C 1641.591431 998.166748 1570.79248 988.448853 1503.601563 970.679565 C 1497.494019 1011.215942 1494.162109 1052.862427 1494.162109 1095.064819 C 1494.162109 1165.864502 1503.046753 1234.164307 1519.98291 1299.688965 C 1330.906372 1327.175537 1162.931885 1419.075928 1038.546875 1552.345215 C 963.860107 1474.605225 874.180847 1411.857788 774.228821 1368.26709 C 723.975037 1516.807129 632.629883 1646.467529 513.520264 1743.088257 C 687.881226 1783.069092 817.819336 1939.105103 817.819336 2125.682617 L 817.819336 2126.793701 L 818.096436 2126.793701 C 902.222839 2147.893799 989.95874 2159 1080.471069 2159 C 1144.329712 2159 1206.799438 2153.169434 1267.881226 2142.341309 C 1268.714722 2142.063477 1269.547607 2142.063477 1270.380371 2142.063477 C 1278.709961 1933.274414 1450.849365 1766.687744 1662.137573 1766.687744 C 1735.435791 1766.687744 1804.013672 1786.955811 1862.874756 1821.938843 C 1871.203613 1813.33252 1878.978149 1804.170044 1887.029907 1795.00769 C 1979.762939 1690.057861 2052.783936 1567.338745 2099.427734 1431.848145 C 2099.150391 1431.570435 2098.873047 1431.292236 2098.594971 1431.292236 C 1990.313721 1361.326172 1918.403442 1239.717773 1918.403442 1101.172729 C 1918.403442 1053.417847 1927.010742 1007.884155 1942.55835 965.682251 C 1869.815674 986.783203 1793.463379 998.166748 1714.334839 998.166748 Z M 1662.666138 1936.797974 C 1645.610474 1919.526855 1622.959351 1910.165283 1598.801392 1910.165283 C 1548.979248 1910.165283 1508.519165 1950.786743 1508.519165 2000.609253 C 1508.519165 2024.820679 1517.880737 2047.418091 1534.936646 2064.420166 C 1552.045898 2081.583496 1574.643921 2090.945557 1598.801392 2090.945557 C 1622.959351 2090.945557 1645.610474 2081.583496 1662.666138 2064.420166 C 1679.722046 2047.418091 1689.137695 2024.820679 1689.137695 2000.609253 C 1689.137695 1976.505127 1679.722046 1953.800049 1662.666138 1936.797974 Z M 1545.697266 2053.659668 C 1531.493042 2039.562744 1523.691528 2020.677734 1523.691528 2000.609253 C 1523.691528 1980.486694 1531.493042 1961.601318 1545.697266 1947.450806 C 1559.847534 1933.139038 1578.786255 1925.445435 1598.801392 1925.445435 C 1618.816284 1925.445435 1637.755249 1933.139038 1651.905518 1947.450806 C 1666.163452 1961.601318 1673.911255 1980.486694 1673.911255 2000.609253 C 1673.911255 2042.038086 1640.283936 2075.71875 1598.801392 2075.71875 C 1578.786255 2075.71875 1559.847534 2067.970947 1545.697266 2053.659668 Z M 1640.983276 1976.612793 C 1640.983276 1964.668213 1635.979614 1956.274902 1626.079834 1951.916748 C 1621.129395 1949.604004 1614.727051 1948.474487 1607.086792 1948.474487 L 1560.385254 1948.474487 L 1560.385254 2049.033447 L 1577.871582 2049.033447 L 1577.871582 2007.819946 L 1605.257568 2007.819946 C 1610.207397 2007.819946 1613.866089 2008.30481 1616.071899 2009.326172 C 1619.623047 2011.155396 1621.506104 2014.598999 1621.721436 2020.140747 L 1622.528809 2036.120483 C 1622.690552 2039.994385 1622.959595 2042.523315 1623.228516 2043.975952 C 1623.605957 2045.589844 1623.981689 2046.827881 1624.519897 2047.90332 L 1625.166138 2049.032959 L 1644.642944 2049.032959 L 1644.642944 2043.168091 L 1643.297729 2042.521973 C 1642.00647 2042.038086 1640.984619 2040.531372 1640.446411 2038.164185 C 1639.907837 2036.549805 1639.692627 2033.913696 1639.531128 2030.470093 L 1639.046509 2017.61084 C 1638.88501 2011.531128 1637.647339 2007.065674 1635.495483 2004.267822 C 1633.935059 2002.330811 1631.836792 2000.662842 1629.46936 1999.263916 C 1632.482422 1997.21936 1635.172729 1994.851685 1637.055786 1991.947021 C 1639.692017 1987.911377 1640.983276 1982.746216 1640.983276 1976.612793 Z M 1605.741943 1992.430908 L 1577.871826 1992.430908 L 1577.871826 1964.022583 L 1607.463745 1964.022583 C 1611.552734 1964.022583 1614.781128 1964.668701 1617.094727 1965.798218 C 1621.291382 1967.896484 1623.281982 1971.823975 1623.281982 1977.850098 C 1623.281982 1983.391846 1621.883179 1987.212158 1618.977783 1989.310303 C 1615.803223 1991.408081 1611.337524 1992.430908 1605.741943 1992.430908 Z M 1909.241455 393.178101 C 1892.305298 401.7854 1874.535522 409.003906 1856.48877 415.111816 C 1817.062988 428.439209 1774.86084 435.936035 1730.71521 435.936035 C 1513.874756 435.936035 1338.125366 260.186401 1338.125366 43.345947 C 1338.125366 40.568848 1338.403198 37.792725 1338.403198 35.016357 C 1338.125366 35.016357 1337.848389 35.016357 1337.570313 34.738525 C 1255.109863 14.469971 1168.762207 3.642334 1079.916016 3.642334 C 1016.057556 3.642334 953.587158 9.472656 892.783142 20.300781 C 892.228088 20.300781 891.394775 20.578369 890.839722 20.578369 C 881.955139 229.645386 709.815063 396.232544 498.527679 396.232544 C 424.951538 396.232544 356.095825 375.963867 297.234711 340.703125 L 296.401886 341.536377 C 192.285202 451.483643 111.490181 583.365112 60.958645 729.683716 C 60.681465 730.239258 60.681465 730.516968 60.403587 731.07251 C 168.685074 801.03894 240.595459 922.646973 240.595459 1061.191895 C 240.595459 1204.456543 163.965225 1329.674072 49.297806 1398.253174 L 49.297806 1398.530762 C 49.575565 1399.363647 49.853443 1400.474243 50.130627 1401.307129 C 92.888344 1538.740967 162.299591 1664.514526 252.53418 1772.240112 C 432.17041 1677.563721 572.38092 1518.750488 642.625061 1326.065063 C 642.902832 1325.51001 643.180603 1324.954468 643.180603 1324.399414 C 674.831848 1237.219238 692.046021 1143.096924 692.046021 1044.811035 C 692.046021 978.731445 683.994202 914.317871 669.279175 852.680542 C 843.639954 819.640991 998.288269 731.627563 1114.89917 607.520508 C 1225.124146 724.964111 1369.49939 809.923096 1532.199463 846.572632 L 1540.528809 848.238281 C 1596.335449 860.17688 1654.362915 866.840332 1713.779297 866.840332 C 1852.601807 866.840332 1983.094727 832.412842 2097.762207 771.60791 C 2101.64917 769.109497 2105.536377 766.333252 2109.700928 763.834351 C 2067.776855 626.677734 1998.920532 500.904663 1909.241455 393.178101 Z"/>
</svg>
